<svg width="31" height="31" viewBox="0 0 31 31" fill="none" xmlns="http://www.w3.org/2000/svg">
<path d="M9.66667 21.3333H17.1667V17.1667H21.3333V9.66667H9.66667V21.3333ZM9.66667 23C9.20833 23 8.81597 22.8368 8.48958 22.5104C8.16319 22.184 8 21.7917 8 21.3333V9.66667C8 9.20833 8.16319 8.81597 8.48958 8.48958C8.81597 8.16319 9.20833 8 9.66667 8H21.3333C21.7917 8 22.184 8.16319 22.5104 8.48958C22.8368 8.81597 23 9.20833 23 9.66667V18L18 23H9.66667ZM11.3333 17.1667V15.5H15.5V17.1667H11.3333ZM11.3333 13.8333V12.1667H19.6667V13.8333H11.3333ZM9.66667 21.3333V17.1667V9.66667V21.3333Z" fill="#94A3B8"/>
</svg>
