<svg width="24" height="24" viewBox="0 0 24 24" fill="none" xmlns="http://www.w3.org/2000/svg">
<path d="M5.525 8.62823L6.9 9.22823C7.05 8.94489 7.2 8.66573 7.35 8.39073C7.5 8.11573 7.66667 7.83656 7.85 7.55323L6.8 7.35323L5.525 8.62823ZM9.425 11.1282L12.05 13.7532C12.85 13.3699 13.6083 12.9407 14.325 12.4657C15.0417 11.9907 15.7417 11.4116 16.425 10.7282C17.5083 9.64489 18.3708 8.45323 19.0125 7.15323C19.6542 5.85323 19.9667 4.54489 19.95 3.22823C18.6333 3.21156 17.325 3.52406 16.025 4.16573C14.725 4.80739 13.5333 5.66989 12.45 6.75323C11.7667 7.43656 11.1875 8.13656 10.7125 8.85323C10.2375 9.56989 9.80833 10.3282 9.425 11.1282ZM14.175 9.00323C13.825 8.65323 13.65 8.22406 13.65 7.71573C13.65 7.20739 13.825 6.77823 14.175 6.42823C14.525 6.07823 14.9542 5.90323 15.4625 5.90323C15.9708 5.90323 16.4 6.07823 16.75 6.42823C17.1 6.77823 17.275 7.20739 17.275 7.71573C17.275 8.22406 17.1 8.65323 16.75 9.00323C16.4 9.35323 15.9708 9.52823 15.4625 9.52823C14.9542 9.52823 14.525 9.35323 14.175 9.00323ZM14.525 17.6532L15.825 16.3782L15.625 15.3282C15.3417 15.5116 15.0625 15.6782 14.7875 15.8282C14.5125 15.9782 14.2333 16.1282 13.95 16.2782L14.525 17.6532ZM23.075 0.103226C23.3417 2.78656 23.1 5.16989 22.35 7.25323C21.6 9.33656 20.3667 11.2366 18.65 12.9532C18.6167 12.9866 18.5792 13.0282 18.5375 13.0782C18.4958 13.1282 18.4583 13.1699 18.425 13.2032L18.925 15.7532C19.025 16.2699 19 16.7782 18.85 17.2782C18.7 17.7782 18.4333 18.2199 18.05 18.6032L13.475 23.1782L10.85 17.0032L6.175 12.3282L0 9.70323L4.575 5.12823C4.95833 4.74489 5.4 4.47823 5.9 4.32823C6.4 4.17823 6.90833 4.15323 7.425 4.25323L9.975 4.75323C10.0083 4.71989 10.0458 4.69073 10.0875 4.66573C10.1292 4.64073 10.1667 4.61156 10.2 4.57823C11.9167 2.86156 13.8208 1.61989 15.9125 0.853226C18.0042 0.0865592 20.3917 -0.163441 23.075 0.103226ZM2.525 15.5032C3.275 14.7532 4.16667 14.3741 5.2 14.3657C6.23333 14.3574 7.125 14.7282 7.875 15.4782C8.625 16.2282 8.99583 17.1199 8.9875 18.1532C8.97917 19.1866 8.6 20.0782 7.85 20.8282C7.3 21.3782 6.37083 21.8491 5.0625 22.2407C3.75417 22.6324 2.16667 22.9116 0.3 23.0782C0.466667 21.2116 0.741667 19.6199 1.125 18.3032C1.50833 16.9866 1.975 16.0532 2.525 15.5032ZM4.775 17.7282C4.64167 17.8616 4.525 18.0574 4.425 18.3157C4.325 18.5741 4.24167 18.8699 4.175 19.2032C4.50833 19.1366 4.80417 19.0491 5.0625 18.9407C5.32083 18.8324 5.51667 18.7116 5.65 18.5782C5.78333 18.4449 5.85 18.2991 5.85 18.1407C5.85 17.9824 5.78333 17.8366 5.65 17.7032C5.51667 17.5699 5.37083 17.5074 5.2125 17.5157C5.05417 17.5241 4.90833 17.5949 4.775 17.7282Z" fill="#1E4B76"/>
</svg>
